<mxfile host="app.diagrams.net" modified="2020-10-03T18:04:04.004Z" agent="5.0 (Windows NT 10.0; Win64; x64) AppleWebKit/537.36 (KHTML, like Gecko) Chrome/85.0.4183.121 Safari/537.36" etag="zBBJoHKKUO6YQNQeH3fC" version="13.7.7" type="github">
  <diagram id="C5RBs43oDa-KdzZeNtuy" name="Page-1">
    <mxGraphModel dx="2858" dy="1064" grid="1" gridSize="10" guides="1" tooltips="1" connect="1" arrows="1" fold="1" page="1" pageScale="1" pageWidth="827" pageHeight="1169" math="0" shadow="0">
      <root>
        <mxCell id="WIyWlLk6GJQsqaUBKTNV-0" />
        <mxCell id="WIyWlLk6GJQsqaUBKTNV-1" parent="WIyWlLk6GJQsqaUBKTNV-0" />
        <mxCell id="Ce2-N_SKrd6ryBQAvR6N-8" value="Route" style="swimlane;fontStyle=1;align=center;verticalAlign=top;childLayout=stackLayout;horizontal=1;startSize=26;horizontalStack=0;resizeParent=1;resizeParentMax=0;resizeLast=0;collapsible=1;marginBottom=0;" vertex="1" parent="WIyWlLk6GJQsqaUBKTNV-1">
          <mxGeometry x="550" y="640" width="180" height="160" as="geometry" />
        </mxCell>
        <mxCell id="Ce2-N_SKrd6ryBQAvR6N-9" value="- $path&#xa;- $callback" style="text;strokeColor=none;fillColor=none;align=left;verticalAlign=top;spacingLeft=4;spacingRight=4;overflow=hidden;rotatable=0;points=[[0,0.5],[1,0.5]];portConstraint=eastwest;" vertex="1" parent="Ce2-N_SKrd6ryBQAvR6N-8">
          <mxGeometry y="26" width="180" height="44" as="geometry" />
        </mxCell>
        <mxCell id="Ce2-N_SKrd6ryBQAvR6N-10" value="" style="line;strokeWidth=1;fillColor=none;align=left;verticalAlign=middle;spacingTop=-1;spacingLeft=3;spacingRight=3;rotatable=0;labelPosition=right;points=[];portConstraint=eastwest;" vertex="1" parent="Ce2-N_SKrd6ryBQAvR6N-8">
          <mxGeometry y="70" width="180" height="8" as="geometry" />
        </mxCell>
        <mxCell id="Ce2-N_SKrd6ryBQAvR6N-11" value="+ __construct($path, $callback)&#xa;- prepareCallback($callback)&#xa;# getPath()&#xa;+ match(): bool&#xa;+ run(Application $app)" style="text;strokeColor=none;fillColor=none;align=left;verticalAlign=top;spacingLeft=4;spacingRight=4;overflow=hidden;rotatable=0;points=[[0,0.5],[1,0.5]];portConstraint=eastwest;" vertex="1" parent="Ce2-N_SKrd6ryBQAvR6N-8">
          <mxGeometry y="78" width="180" height="82" as="geometry" />
        </mxCell>
        <mxCell id="Ce2-N_SKrd6ryBQAvR6N-58" style="edgeStyle=orthogonalEdgeStyle;rounded=0;orthogonalLoop=1;jettySize=auto;html=1;exitX=0.5;exitY=0;exitDx=0;exitDy=0;entryX=0.5;entryY=1;entryDx=0;entryDy=0;entryPerimeter=0;endArrow=block;endFill=0;" edge="1" parent="WIyWlLk6GJQsqaUBKTNV-1" source="Ce2-N_SKrd6ryBQAvR6N-39" target="Ce2-N_SKrd6ryBQAvR6N-11">
          <mxGeometry relative="1" as="geometry" />
        </mxCell>
        <mxCell id="Ce2-N_SKrd6ryBQAvR6N-39" value="PostRoute" style="swimlane;fontStyle=1;align=center;verticalAlign=top;childLayout=stackLayout;horizontal=1;startSize=26;horizontalStack=0;resizeParent=1;resizeParentMax=0;resizeLast=0;collapsible=1;marginBottom=0;rounded=0;" vertex="1" parent="WIyWlLk6GJQsqaUBKTNV-1">
          <mxGeometry x="668" y="870" width="160" height="60" as="geometry" />
        </mxCell>
        <mxCell id="Ce2-N_SKrd6ryBQAvR6N-40" value="" style="line;strokeWidth=1;fillColor=none;align=left;verticalAlign=middle;spacingTop=-1;spacingLeft=3;spacingRight=3;rotatable=0;labelPosition=right;points=[];portConstraint=eastwest;" vertex="1" parent="Ce2-N_SKrd6ryBQAvR6N-39">
          <mxGeometry y="26" width="160" height="8" as="geometry" />
        </mxCell>
        <mxCell id="Ce2-N_SKrd6ryBQAvR6N-41" value="# getMethod(): string" style="text;strokeColor=none;fillColor=none;align=left;verticalAlign=top;spacingLeft=4;spacingRight=4;overflow=hidden;rotatable=0;points=[[0,0.5],[1,0.5]];portConstraint=eastwest;" vertex="1" parent="Ce2-N_SKrd6ryBQAvR6N-39">
          <mxGeometry y="34" width="160" height="26" as="geometry" />
        </mxCell>
        <mxCell id="Ce2-N_SKrd6ryBQAvR6N-59" style="edgeStyle=orthogonalEdgeStyle;rounded=0;orthogonalLoop=1;jettySize=auto;html=1;exitX=0.5;exitY=0;exitDx=0;exitDy=0;endArrow=block;endFill=0;" edge="1" parent="WIyWlLk6GJQsqaUBKTNV-1" source="Ce2-N_SKrd6ryBQAvR6N-35">
          <mxGeometry relative="1" as="geometry">
            <mxPoint x="640" y="800" as="targetPoint" />
          </mxGeometry>
        </mxCell>
        <mxCell id="Ce2-N_SKrd6ryBQAvR6N-35" value="GetRoute" style="swimlane;fontStyle=1;align=center;verticalAlign=top;childLayout=stackLayout;horizontal=1;startSize=26;horizontalStack=0;resizeParent=1;resizeParentMax=0;resizeLast=0;collapsible=1;marginBottom=0;rounded=0;" vertex="1" parent="WIyWlLk6GJQsqaUBKTNV-1">
          <mxGeometry x="480" y="870" width="160" height="60" as="geometry" />
        </mxCell>
        <mxCell id="Ce2-N_SKrd6ryBQAvR6N-37" value="" style="line;strokeWidth=1;fillColor=none;align=left;verticalAlign=middle;spacingTop=-1;spacingLeft=3;spacingRight=3;rotatable=0;labelPosition=right;points=[];portConstraint=eastwest;" vertex="1" parent="Ce2-N_SKrd6ryBQAvR6N-35">
          <mxGeometry y="26" width="160" height="8" as="geometry" />
        </mxCell>
        <mxCell id="Ce2-N_SKrd6ryBQAvR6N-38" value="# getMethod(): string" style="text;strokeColor=none;fillColor=none;align=left;verticalAlign=top;spacingLeft=4;spacingRight=4;overflow=hidden;rotatable=0;points=[[0,0.5],[1,0.5]];portConstraint=eastwest;" vertex="1" parent="Ce2-N_SKrd6ryBQAvR6N-35">
          <mxGeometry y="34" width="160" height="26" as="geometry" />
        </mxCell>
        <mxCell id="Ce2-N_SKrd6ryBQAvR6N-43" value="&lt;&lt;Interface&gt;&gt;&#xa;DatabaseDriver" style="swimlane;fontStyle=1;align=center;verticalAlign=top;childLayout=stackLayout;horizontal=1;startSize=40;horizontalStack=0;resizeParent=1;resizeParentMax=0;resizeLast=0;collapsible=1;marginBottom=0;rounded=0;" vertex="1" parent="WIyWlLk6GJQsqaUBKTNV-1">
          <mxGeometry x="570" y="980" width="160" height="100" as="geometry" />
        </mxCell>
        <mxCell id="Ce2-N_SKrd6ryBQAvR6N-44" value="" style="line;strokeWidth=1;fillColor=none;align=left;verticalAlign=middle;spacingTop=-1;spacingLeft=3;spacingRight=3;rotatable=0;labelPosition=right;points=[];portConstraint=eastwest;" vertex="1" parent="Ce2-N_SKrd6ryBQAvR6N-43">
          <mxGeometry y="40" width="160" height="8" as="geometry" />
        </mxCell>
        <mxCell id="Ce2-N_SKrd6ryBQAvR6N-45" value="+ connect()&#xa;+ query($request)&#xa;+ disconnect()" style="text;strokeColor=none;fillColor=none;align=left;verticalAlign=top;spacingLeft=4;spacingRight=4;overflow=hidden;rotatable=0;points=[[0,0.5],[1,0.5]];portConstraint=eastwest;" vertex="1" parent="Ce2-N_SKrd6ryBQAvR6N-43">
          <mxGeometry y="48" width="160" height="52" as="geometry" />
        </mxCell>
        <mxCell id="Ce2-N_SKrd6ryBQAvR6N-46" value="MysqlDriver" style="swimlane;fontStyle=1;align=center;verticalAlign=top;childLayout=stackLayout;horizontal=1;startSize=26;horizontalStack=0;resizeParent=1;resizeParentMax=0;resizeLast=0;collapsible=1;marginBottom=0;rounded=0;" vertex="1" parent="WIyWlLk6GJQsqaUBKTNV-1">
          <mxGeometry x="95" y="1013" width="160" height="34" as="geometry" />
        </mxCell>
        <mxCell id="Ce2-N_SKrd6ryBQAvR6N-47" value="" style="line;strokeWidth=1;fillColor=none;align=left;verticalAlign=middle;spacingTop=-1;spacingLeft=3;spacingRight=3;rotatable=0;labelPosition=right;points=[];portConstraint=eastwest;" vertex="1" parent="Ce2-N_SKrd6ryBQAvR6N-46">
          <mxGeometry y="26" width="160" height="8" as="geometry" />
        </mxCell>
        <mxCell id="Ce2-N_SKrd6ryBQAvR6N-62" value="" style="endArrow=open;html=1;endSize=12;startArrow=none;startSize=14;startFill=0;edgeStyle=orthogonalEdgeStyle;shadow=0;exitX=1;exitY=0.5;exitDx=0;exitDy=0;" edge="1" parent="WIyWlLk6GJQsqaUBKTNV-1" source="Ce2-N_SKrd6ryBQAvR6N-5">
          <mxGeometry x="0.298" y="-12" relative="1" as="geometry">
            <mxPoint x="330" y="830" as="sourcePoint" />
            <mxPoint x="550" y="679" as="targetPoint" />
            <Array as="points">
              <mxPoint x="550" y="679" />
            </Array>
            <mxPoint as="offset" />
          </mxGeometry>
        </mxCell>
        <mxCell id="Ce2-N_SKrd6ryBQAvR6N-63" value="1" style="edgeLabel;resizable=0;html=1;align=left;verticalAlign=top;" connectable="0" vertex="1" parent="Ce2-N_SKrd6ryBQAvR6N-62">
          <mxGeometry x="-1" relative="1" as="geometry">
            <mxPoint x="1" y="-22" as="offset" />
          </mxGeometry>
        </mxCell>
        <mxCell id="Ce2-N_SKrd6ryBQAvR6N-64" value="0..*" style="edgeLabel;resizable=0;html=1;align=right;verticalAlign=top;" connectable="0" vertex="1" parent="Ce2-N_SKrd6ryBQAvR6N-62">
          <mxGeometry x="1" relative="1" as="geometry">
            <mxPoint x="-15" y="-23" as="offset" />
          </mxGeometry>
        </mxCell>
        <mxCell id="Ce2-N_SKrd6ryBQAvR6N-4" value="Router" style="swimlane;fontStyle=1;align=center;verticalAlign=top;childLayout=stackLayout;horizontal=1;startSize=26;horizontalStack=0;resizeParent=1;resizeParentMax=0;resizeLast=0;collapsible=1;marginBottom=0;" vertex="1" parent="WIyWlLk6GJQsqaUBKTNV-1">
          <mxGeometry x="310" y="640" width="170" height="120" as="geometry" />
        </mxCell>
        <mxCell id="Ce2-N_SKrd6ryBQAvR6N-5" value="- $routes = [] : Route[]" style="text;strokeColor=none;fillColor=none;align=left;verticalAlign=top;spacingLeft=4;spacingRight=4;overflow=hidden;rotatable=0;points=[[0,0.5],[1,0.5]];portConstraint=eastwest;" vertex="1" parent="Ce2-N_SKrd6ryBQAvR6N-4">
          <mxGeometry y="26" width="170" height="26" as="geometry" />
        </mxCell>
        <mxCell id="Ce2-N_SKrd6ryBQAvR6N-6" value="" style="line;strokeWidth=1;fillColor=none;align=left;verticalAlign=middle;spacingTop=-1;spacingLeft=3;spacingRight=3;rotatable=0;labelPosition=right;points=[];portConstraint=eastwest;" vertex="1" parent="Ce2-N_SKrd6ryBQAvR6N-4">
          <mxGeometry y="52" width="170" height="8" as="geometry" />
        </mxCell>
        <mxCell id="Ce2-N_SKrd6ryBQAvR6N-7" value="+ get($path, $callback)&#xa;+ post($path, $callback)&#xa;+ dispatch(Application $app)&#xa;&#xa;" style="text;strokeColor=none;fillColor=none;align=left;verticalAlign=top;spacingLeft=4;spacingRight=4;overflow=hidden;rotatable=0;points=[[0,0.5],[1,0.5]];portConstraint=eastwest;" vertex="1" parent="Ce2-N_SKrd6ryBQAvR6N-4">
          <mxGeometry y="60" width="170" height="60" as="geometry" />
        </mxCell>
        <mxCell id="Ce2-N_SKrd6ryBQAvR6N-65" value="" style="endArrow=open;html=1;endSize=12;startArrow=none;startSize=14;startFill=0;edgeStyle=orthogonalEdgeStyle;shadow=0;exitX=1;exitY=0.5;exitDx=0;exitDy=0;" edge="1" parent="WIyWlLk6GJQsqaUBKTNV-1">
          <mxGeometry x="0.298" y="-12" relative="1" as="geometry">
            <mxPoint x="239.97" y="680" as="sourcePoint" />
            <mxPoint x="309.97" y="680" as="targetPoint" />
            <Array as="points">
              <mxPoint x="309.97" y="680" />
            </Array>
            <mxPoint as="offset" />
          </mxGeometry>
        </mxCell>
        <mxCell id="Ce2-N_SKrd6ryBQAvR6N-66" value="1" style="edgeLabel;resizable=0;html=1;align=left;verticalAlign=top;" connectable="0" vertex="1" parent="Ce2-N_SKrd6ryBQAvR6N-65">
          <mxGeometry x="-1" relative="1" as="geometry">
            <mxPoint x="1" y="-22" as="offset" />
          </mxGeometry>
        </mxCell>
        <mxCell id="Ce2-N_SKrd6ryBQAvR6N-67" value="1" style="edgeLabel;resizable=0;html=1;align=right;verticalAlign=top;" connectable="0" vertex="1" parent="Ce2-N_SKrd6ryBQAvR6N-65">
          <mxGeometry x="1" relative="1" as="geometry">
            <mxPoint x="-15" y="-23" as="offset" />
          </mxGeometry>
        </mxCell>
        <mxCell id="Ce2-N_SKrd6ryBQAvR6N-0" value="Application" style="swimlane;fontStyle=1;align=center;verticalAlign=top;childLayout=stackLayout;horizontal=1;startSize=26;horizontalStack=0;resizeParent=1;resizeParentMax=0;resizeLast=0;collapsible=1;marginBottom=0;" vertex="1" parent="WIyWlLk6GJQsqaUBKTNV-1">
          <mxGeometry x="-10" y="640" width="250" height="140" as="geometry" />
        </mxCell>
        <mxCell id="Ce2-N_SKrd6ryBQAvR6N-1" value="- $router: Router&#xa;- $db: Database " style="text;strokeColor=none;fillColor=none;align=left;verticalAlign=top;spacingLeft=4;spacingRight=4;overflow=hidden;rotatable=0;points=[[0,0.5],[1,0.5]];portConstraint=eastwest;" vertex="1" parent="Ce2-N_SKrd6ryBQAvR6N-0">
          <mxGeometry y="26" width="250" height="44" as="geometry" />
        </mxCell>
        <mxCell id="Ce2-N_SKrd6ryBQAvR6N-2" value="" style="line;strokeWidth=1;fillColor=none;align=left;verticalAlign=middle;spacingTop=-1;spacingLeft=3;spacingRight=3;rotatable=0;labelPosition=right;points=[];portConstraint=eastwest;" vertex="1" parent="Ce2-N_SKrd6ryBQAvR6N-0">
          <mxGeometry y="70" width="250" height="8" as="geometry" />
        </mxCell>
        <mxCell id="Ce2-N_SKrd6ryBQAvR6N-3" value="+ __construct(Router $router, Database $db)&#xa;+ run()&#xa;+ getDatabase(): Database&#xa;" style="text;strokeColor=none;fillColor=none;align=left;verticalAlign=top;spacingLeft=4;spacingRight=4;overflow=hidden;rotatable=0;points=[[0,0.5],[1,0.5]];portConstraint=eastwest;" vertex="1" parent="Ce2-N_SKrd6ryBQAvR6N-0">
          <mxGeometry y="78" width="250" height="62" as="geometry" />
        </mxCell>
        <mxCell id="Ce2-N_SKrd6ryBQAvR6N-68" value="" style="endArrow=open;endSize=12;dashed=1;html=1;shadow=0;exitX=0.235;exitY=1.008;exitDx=0;exitDy=0;exitPerimeter=0;entryX=0.452;entryY=1.008;entryDx=0;entryDy=0;entryPerimeter=0;" edge="1" parent="WIyWlLk6GJQsqaUBKTNV-1" source="Ce2-N_SKrd6ryBQAvR6N-7" target="Ce2-N_SKrd6ryBQAvR6N-3">
          <mxGeometry width="160" relative="1" as="geometry">
            <mxPoint x="330" y="790" as="sourcePoint" />
            <mxPoint x="490" y="790" as="targetPoint" />
            <Array as="points">
              <mxPoint x="350" y="830" />
              <mxPoint x="103" y="830" />
            </Array>
          </mxGeometry>
        </mxCell>
        <mxCell id="Ce2-N_SKrd6ryBQAvR6N-27" value="Database" style="swimlane;fontStyle=1;align=center;verticalAlign=top;childLayout=stackLayout;horizontal=1;startSize=26;horizontalStack=0;resizeParent=1;resizeParentMax=0;resizeLast=0;collapsible=1;marginBottom=0;" vertex="1" parent="WIyWlLk6GJQsqaUBKTNV-1">
          <mxGeometry x="-10" y="850" width="220" height="100" as="geometry" />
        </mxCell>
        <mxCell id="Ce2-N_SKrd6ryBQAvR6N-28" value="- $driver: DatabaseDriver" style="text;strokeColor=none;fillColor=none;align=left;verticalAlign=top;spacingLeft=4;spacingRight=4;overflow=hidden;rotatable=0;points=[[0,0.5],[1,0.5]];portConstraint=eastwest;" vertex="1" parent="Ce2-N_SKrd6ryBQAvR6N-27">
          <mxGeometry y="26" width="220" height="26" as="geometry" />
        </mxCell>
        <mxCell id="Ce2-N_SKrd6ryBQAvR6N-29" value="" style="line;strokeWidth=1;fillColor=none;align=left;verticalAlign=middle;spacingTop=-1;spacingLeft=3;spacingRight=3;rotatable=0;labelPosition=right;points=[];portConstraint=eastwest;" vertex="1" parent="Ce2-N_SKrd6ryBQAvR6N-27">
          <mxGeometry y="52" width="220" height="8" as="geometry" />
        </mxCell>
        <mxCell id="Ce2-N_SKrd6ryBQAvR6N-30" value="+ __construct(DatabaseDriver, $driver)&#xa;+ query($sql)&#xa;" style="text;strokeColor=none;fillColor=none;align=left;verticalAlign=top;spacingLeft=4;spacingRight=4;overflow=hidden;rotatable=0;points=[[0,0.5],[1,0.5]];portConstraint=eastwest;" vertex="1" parent="Ce2-N_SKrd6ryBQAvR6N-27">
          <mxGeometry y="60" width="220" height="40" as="geometry" />
        </mxCell>
        <mxCell id="Ce2-N_SKrd6ryBQAvR6N-69" value="" style="endArrow=open;html=1;endSize=12;startArrow=none;startSize=14;startFill=0;edgeStyle=orthogonalEdgeStyle;shadow=0;exitX=0;exitY=0.627;exitDx=0;exitDy=0;exitPerimeter=0;entryX=0;entryY=0.5;entryDx=0;entryDy=0;" edge="1" parent="WIyWlLk6GJQsqaUBKTNV-1" source="Ce2-N_SKrd6ryBQAvR6N-1" target="Ce2-N_SKrd6ryBQAvR6N-28">
          <mxGeometry x="0.298" y="-12" relative="1" as="geometry">
            <mxPoint x="-80.02999999999975" y="750" as="sourcePoint" />
            <mxPoint x="-50" y="880" as="targetPoint" />
            <Array as="points">
              <mxPoint x="-50" y="694" />
              <mxPoint x="-50" y="889" />
            </Array>
            <mxPoint as="offset" />
          </mxGeometry>
        </mxCell>
        <mxCell id="Ce2-N_SKrd6ryBQAvR6N-70" value="1" style="edgeLabel;resizable=0;html=1;align=left;verticalAlign=top;" connectable="0" vertex="1" parent="Ce2-N_SKrd6ryBQAvR6N-69">
          <mxGeometry x="-1" relative="1" as="geometry">
            <mxPoint x="-20" y="-22" as="offset" />
          </mxGeometry>
        </mxCell>
        <mxCell id="Ce2-N_SKrd6ryBQAvR6N-71" value="1" style="edgeLabel;resizable=0;html=1;align=right;verticalAlign=top;" connectable="0" vertex="1" parent="Ce2-N_SKrd6ryBQAvR6N-69">
          <mxGeometry x="1" relative="1" as="geometry">
            <mxPoint x="-15" y="-23" as="offset" />
          </mxGeometry>
        </mxCell>
        <mxCell id="Ce2-N_SKrd6ryBQAvR6N-49" value="ArrayDriver" style="swimlane;fontStyle=1;align=center;verticalAlign=top;childLayout=stackLayout;horizontal=1;startSize=26;horizontalStack=0;resizeParent=1;resizeParentMax=0;resizeLast=0;collapsible=1;marginBottom=0;rounded=0;" vertex="1" parent="WIyWlLk6GJQsqaUBKTNV-1">
          <mxGeometry x="270" y="1013" width="160" height="34" as="geometry" />
        </mxCell>
        <mxCell id="Ce2-N_SKrd6ryBQAvR6N-50" value="" style="line;strokeWidth=1;fillColor=none;align=left;verticalAlign=middle;spacingTop=-1;spacingLeft=3;spacingRight=3;rotatable=0;labelPosition=right;points=[];portConstraint=eastwest;" vertex="1" parent="Ce2-N_SKrd6ryBQAvR6N-49">
          <mxGeometry y="26" width="160" height="8" as="geometry" />
        </mxCell>
      </root>
    </mxGraphModel>
  </diagram>
</mxfile>
